<?xml version="1.0" encoding="UTF-8" standalone="no"?>
<svg width="19px" height="20px" viewBox="0 0 19 20" version="1.1" xmlns="http://www.w3.org/2000/svg" xmlns:xlink="http://www.w3.org/1999/xlink">
    <!-- Generator: Sketch 39.1 (31720) - http://www.bohemiancoding.com/sketch -->
    <title>Date icon</title>
    <desc>Created with Sketch.</desc>
    <defs></defs>
    <g id="Symbols" stroke="none" stroke-width="1" fill="none" fill-rule="evenodd" fill-opacity="0.4">
        <g id="Post" transform="translate(-282.000000, -174.000000)" fill="#00CB35">
            <path d="M282,176.675793 C282,175.934373 282.599932,175.333333 283.342461,175.333333 L299.324206,175.333333 C300.065627,175.333333 300.666667,175.933265 300.666667,176.675793 L300.666667,192.65754 C300.666667,193.39896 300.066735,194 299.324206,194 L283.342461,194 C282.60104,194 282,193.400068 282,192.65754 L282,176.675793 L282,176.675793 Z M283.333333,180.666667 L299.333333,180.666667 L299.333333,192.666667 L283.333333,192.666667 L283.333333,180.666667 L283.333333,180.666667 Z M286,174.666667 C286,174.298477 286.28538,174 286.672913,174 L287.993754,174 C288.365393,174 288.666667,174.309245 288.666667,174.666667 L288.666667,175.333333 L286,175.333333 L286,174.666667 L286,174.666667 Z M294,174.666667 C294,174.298477 294.28538,174 294.672913,174 L295.993754,174 C296.365393,174 296.666667,174.309245 296.666667,174.666667 L296.666667,175.333333 L294,175.333333 L294,174.666667 L294,174.666667 Z" id="Date-icon"></path>
        </g>
    </g>
</svg>