<?xml version="1.0" encoding="UTF-8" standalone="no"?>
<svg width="20px" height="20px" viewBox="0 0 20 20" version="1.1" xmlns="http://www.w3.org/2000/svg" xmlns:xlink="http://www.w3.org/1999/xlink">
    <!-- Generator: Sketch 39.1 (31720) - http://www.bohemiancoding.com/sketch -->
    <title>Comments icon</title>
    <desc>Created with Sketch.</desc>
    <defs></defs>
    <g id="Symbols" stroke="none" stroke-width="1" fill="none" fill-rule="evenodd" fill-opacity="0.4">
        <g id="Post" transform="translate(-10.000000, -174.000000)" fill="#00CB35">
            <path d="M26.872728,183.94 C26.872728,185.045 25.977728,185.94 24.872728,185.94 C23.767728,185.94 22.872728,185.045 22.872728,183.94 C22.872728,182.835 23.767728,181.94 24.872728,181.94 C25.977728,181.94 26.872728,182.835 26.872728,183.94 M21.872728,183.94 C21.872728,185.045 20.977728,185.94 19.872728,185.94 C18.767728,185.94 17.872728,185.045 17.872728,183.94 C17.872728,182.835 18.767728,181.94 19.872728,181.94 C20.977728,181.94 21.872728,182.835 21.872728,183.94 M16.872728,183.94 C16.872728,185.045 15.977728,185.94 14.872728,185.94 C13.767728,185.94 12.872728,185.045 12.872728,183.94 C12.872728,182.835 13.767728,181.94 14.872728,181.94 C15.977728,181.94 16.872728,182.835 16.872728,183.94 M27.441728,192 C27.441728,192 24.825728,191.257 23.018728,191.257 C21.544728,191.257 21.208728,191.518 19.957728,191.518 C15.877728,191.518 12.581728,188.508 12.075728,184.851 C11.403728,179.997 15.268728,175.999 19.957728,176 C23.900728,176 27.002728,178.703 27.732728,182.083 C28.000728,183.318 27.973728,184.544 27.654728,185.726 C27.274728,187.131 27.291728,188.711 27.703728,190.294 C27.914728,191.103 28.302728,192 27.441728,192 M29.917728,190.859 C29.917728,190.859 29.640728,189.794 29.639728,189.79 C29.336728,188.63 29.271728,187.405 29.584728,186.248 C29.970728,184.822 30.035728,183.268 29.687728,181.66 C28.767728,177.405 24.861728,174 19.957728,174 C13.999728,173.999 9.264728,179.127 10.094728,185.125 C10.736728,189.766 14.870728,193.518 19.957728,193.518 C21.426728,193.518 21.722728,193.257 23.019728,193.257 C24.583728,193.257 26.795728,193.919 26.795728,193.919 C28.683728,194.392 30.399728,192.71 29.917728,190.859" id="Comments-icon"></path>
        </g>
    </g>
</svg>