<?xml version="1.0" encoding="UTF-8" standalone="no"?>
<svg width="32px" height="31px" viewBox="0 0 32 31" version="1.1" xmlns="http://www.w3.org/2000/svg" xmlns:xlink="http://www.w3.org/1999/xlink">
    <!-- Generator: Sketch 39.1 (31720) - http://www.bohemiancoding.com/sketch -->
    <title>Shapeicon</title>
    <desc>Created with Sketch.</desc>
    <defs></defs>
    <g id="Symbols" stroke="none" stroke-width="1" fill="none" fill-rule="evenodd">
        <g id="Footer/Tablet/Light-Copy" transform="translate(-239.000000, -35.000000)" fill="#4460AA">
            <path d="M255.2,35 C246.7168,35 239.84,41.8768 239.84,50.36 C239.84,58.8432 246.7168,65.72 255.2,65.72 C263.6832,65.72 270.56,58.8432 270.56,50.36 C270.56,41.8768 263.6832,35 255.2,35 L255.2,35 Z M258.8384,45.6144 L256.528,45.6144 C256.256,45.6144 255.952,45.9744 255.952,46.4528 L255.952,48.12 L258.84,48.12 L258.4032,50.4976 L255.952,50.4976 L255.952,57.6336 L253.2272,57.6336 L253.2272,50.4976 L250.7552,50.4976 L250.7552,48.12 L253.2272,48.12 L253.2272,46.7216 C253.2272,44.7152 254.6192,43.0848 256.5296,43.0848 L258.84,43.0848 L258.84,45.6128 L258.8384,45.6144 Z" id="Shape"></path>
        </g>
    </g>
</svg>