<?xml version="1.0" encoding="UTF-8" standalone="no"?>
<svg width="33px" height="32px" viewBox="0 0 33 32" version="1.1" xmlns="http://www.w3.org/2000/svg" xmlns:xlink="http://www.w3.org/1999/xlink">
    <!-- Generator: Sketch 39.1 (31720) - http://www.bohemiancoding.com/sketch -->
    <title>github-[#142]</title>
    <desc>Created with Sketch.</desc>
    <defs></defs>
    <g id="Symbols" stroke="none" stroke-width="1" fill="none" fill-rule="evenodd">
        <g id="Footer/Tablet/Light-Copy" transform="translate(-135.000000, -34.000000)" fill="#000000">
            <path d="M151.28,34 C160.1168,34 167.28,41.344 167.28,50.4048 C167.28,57.6512 162.7008,63.7984 156.3472,65.9696 C155.536,66.1312 155.248,65.6192 155.248,65.1824 C155.248,64.6416 155.2672,62.8752 155.2672,60.68 C155.2672,59.1504 154.7552,58.152 154.1808,57.6432 C157.744,57.2368 161.488,55.8496 161.488,49.5488 C161.488,47.7568 160.8672,46.2944 159.84,45.1456 C160.0064,44.7312 160.5552,43.0624 159.6832,40.8032 C159.6832,40.8032 158.3424,40.3632 155.288,42.4848 C154.0096,42.1216 152.64,41.9392 151.28,41.9328 C149.92,41.9392 148.552,42.1216 147.2752,42.4848 C144.2176,40.3632 142.8736,40.8032 142.8736,40.8032 C142.0048,43.0624 142.5536,44.7312 142.7184,45.1456 C141.696,46.2944 141.0704,47.7568 141.0704,49.5488 C141.0704,55.8336 144.8064,57.2416 148.36,57.656 C147.9024,58.0656 147.488,58.7888 147.344,59.8496 C146.432,60.2688 144.1152,60.9936 142.688,58.4864 C142.688,58.4864 141.8416,56.9104 140.2352,56.7952 C140.2352,56.7952 138.6752,56.7744 140.1264,57.792 C140.1264,57.792 141.1744,58.296 141.9024,60.192 C141.9024,60.192 142.8416,63.12 147.2928,62.128 C147.3008,63.4992 147.3152,64.792 147.3152,65.1824 C147.3152,65.616 147.0208,66.1232 146.2224,65.9712 C139.864,63.8032 135.28,57.6528 135.28,50.4048 C135.28,41.344 142.4448,34 151.28,34" id="github-[#142]"></path>
        </g>
    </g>
</svg>