<?xml version="1.0" encoding="UTF-8" standalone="no"?>
<svg width="33px" height="32px" viewBox="0 0 33 32" version="1.1" xmlns="http://www.w3.org/2000/svg" xmlns:xlink="http://www.w3.org/1999/xlink">
    <!-- Generator: Sketch 39.1 (31720) - http://www.bohemiancoding.com/sketch -->
    <title>skype-[#170]</title>
    <desc>Created with Sketch.</desc>
    <defs></defs>
    <g id="Symbols" stroke="none" stroke-width="1" fill="none" fill-rule="evenodd">
        <g id="Footer/Tablet/Light-Copy" transform="translate(-187.000000, -34.000000)" fill="#01ACEC">
            <path d="M206.594896,60.191969 C212.88154,58.882865 213.708517,53.150513 211.268125,50.498801 C210.099007,49.205649 208.347762,48.488097 204.185314,47.483553 C202.286511,47.041857 198.691596,46.214305 200.022864,44.253025 C200.460676,43.533889 201.556826,43.103361 203.016196,43.031617 C208.046159,42.691985 206.993791,48.156433 210.465471,46.549153 C212.070778,45.759857 211.924842,43.175121 210.171976,41.666689 C206.33221,38.547793 195.349637,38.584465 195.349637,45.401089 C195.349637,52.034337 204.887432,50.560993 207.324581,53.227057 C208.586127,54.775345 207.23702,57.273969 203.235101,57.104961 C198.688352,56.773297 199.894765,52.509521 197.102503,52.509521 C194.984794,52.509521 194.255109,54.233201 195.349637,56.459169 C197.243575,60.325905 202.570277,61.041857 206.667864,60.191969 L206.594896,60.191969 L206.594896,60.191969 L206.594896,60.191969 Z M208.566668,65.720209 C206.405178,65.013841 206.512199,65.058481 204.550157,65.146177 C196.820357,65.506545 190.846668,60.663953 188.925164,54.089697 C188.125752,51.142993 189.028941,48.543905 188.122509,45.688097 C185.331869,38.214529 193.492992,31.603601 200.095834,34.845281 C200.681204,35.133889 201.046045,35.204049 203.309692,35.204049 C205.354432,35.204049 206.157085,35.275809 207.178645,35.564417 C211.778904,36.712481 215.503543,39.655985 217.473693,43.749153 C218.71578,46.262129 219.153589,48.848465 218.861716,51.790385 C218.71578,53.372161 218.71578,53.515665 219.080621,54.448465 C221.358861,61.030689 215.125727,67.423169 208.638015,65.721809 L208.566668,65.721809 L208.566668,65.720209 L208.566668,65.720209 Z" id="skype-[#170]"></path>
        </g>
    </g>
</svg>