<?xml version="1.0" encoding="UTF-8" standalone="no"?>
<svg width="32px" height="32px" viewBox="0 0 32 32" version="1.1" xmlns="http://www.w3.org/2000/svg" xmlns:xlink="http://www.w3.org/1999/xlink">
    <!-- Generator: Sketch 39.1 (31720) - http://www.bohemiancoding.com/sketch -->
    <title>telegram.1</title>
    <desc>Created with Sketch.</desc>
    <defs>
        <linearGradient x1="66.67%" y1="16.67%" x2="41.67%" y2="75%" id="linearGradient-1">
            <stop stop-color="#37AEE2" offset="0%"></stop>
            <stop stop-color="#1E96C8" offset="100%"></stop>
        </linearGradient>
        <linearGradient x1="61.2346759%" y1="43.69%" x2="74.7064382%" y2="80.24%" id="linearGradient-2">
            <stop stop-color="#EFF7FC" offset="0%"></stop>
            <stop stop-color="#FFFFFF" offset="100%"></stop>
        </linearGradient>
    </defs>
    <g id="Symbols" stroke="none" stroke-width="1" fill="none" fill-rule="evenodd">
        <g id="Footer/Tablet/Light-Copy" transform="translate(-83.000000, -34.000000)">
            <g id="telegram.1" transform="translate(83.000000, 34.000000)">
                <g id="Group">
                    <ellipse id="Oval" fill="url(#linearGradient-1)" cx="16" cy="16" rx="16" ry="16"></ellipse>
                    <path d="M13.0666667,23.3333333 C12.54832,23.3333333 12.6364,23.1376133 12.4576267,22.6440667 L10.9333333,17.6274533 L22.6666667,10.6666667" id="Shape" fill="#C8DAEA"></path>
                    <path d="M13.0666667,23.3333333 C13.4666667,23.3333333 13.6434,23.1504 13.8666667,22.9333333 L16,20.8589333 L13.3389333,19.2542667" id="Shape" fill="#A9C9DD"></path>
                    <path d="M13.3386667,19.2546667 L19.7866667,24.0185333 C20.5224667,24.42452 21.05352,24.21432 21.2368,23.3354 L23.8614667,10.967 C24.1301867,9.88964 23.4507867,9.401 22.74688,9.72057333 L7.33488,15.6633733 C6.28286667,16.0853333 6.289,16.6722533 7.14312,16.9337733 L11.0981867,18.1682133 L20.2545867,12.3915467 C20.68684,12.1294267 21.08356,12.270348 20.7579467,12.5593333" id="Shape" fill="url(#linearGradient-2)"></path>
                </g>
            </g>
        </g>
    </g>
</svg>