<?xml version="1.0" encoding="UTF-8" standalone="no"?>
<svg width="32px" height="31px" viewBox="0 0 32 31" version="1.1" xmlns="http://www.w3.org/2000/svg" xmlns:xlink="http://www.w3.org/1999/xlink">
    <!-- Generator: Sketch 39.1 (31720) - http://www.bohemiancoding.com/sketch -->
    <title>Shape</title>
    <desc>Created with Sketch.</desc>
    <defs></defs>
    <g id="Symbols" stroke="none" stroke-width="1" fill="none" fill-rule="evenodd">
        <g id="Footer/Tablet/Light-Copy" transform="translate(-290.000000, -35.000000)" fill="#1DADEA">
            <path d="M306.2,35 C297.7168,35 290.84,41.8768 290.84,50.36 C290.84,58.8432 297.7168,65.72 306.2,65.72 C314.6832,65.72 321.56,58.8432 321.56,50.36 C321.56,41.8768 314.6832,35 306.2,35 L306.2,35 Z M312.448,47.5824 C312.4544,47.7136 312.456,47.8448 312.456,47.9728 C312.456,51.9728 309.416,56.5808 303.848,56.5808 C302.1408,56.5808 300.552,56.0848 299.2128,55.2208 C299.448,55.2528 299.6896,55.2624 299.9328,55.2624 C301.352,55.2624 302.656,54.7824 303.6928,53.9664 C302.368,53.9424 301.2512,53.0704 300.8656,51.8704 C301.0496,51.9024 301.2384,51.9216 301.4336,51.9216 C301.7104,51.9216 301.9776,51.8848 302.2336,51.816 C300.8448,51.5376 299.8,50.3152 299.8,48.8496 L299.8,48.8128 C300.208,49.0368 300.6752,49.176 301.1712,49.192 C300.3552,48.648 299.824,47.7232 299.824,46.672 C299.824,46.1184 299.9728,45.5968 300.2336,45.152 C301.7312,46.9792 303.96,48.184 306.472,48.312 C306.4208,48.0912 306.3952,47.8608 306.3952,47.624 C306.3952,45.9536 307.7488,44.5968 309.4192,44.5968 C310.2896,44.5968 311.0768,44.9648 311.6272,45.5536 C312.3184,45.416 312.9648,45.1664 313.5472,44.8176 C313.3232,45.5248 312.8432,46.1184 312.2192,46.4944 C312.832,46.4192 313.4144,46.2576 313.9568,46.0144 C313.552,46.6224 313.0384,47.1568 312.448,47.5824 L312.448,47.5824 Z" id="Shape"></path>
        </g>
    </g>
</svg>