<?xml version="1.0" encoding="UTF-8" standalone="no"?>
<svg width="31px" height="31px" viewBox="0 0 31 31" version="1.1" xmlns="http://www.w3.org/2000/svg" xmlns:xlink="http://www.w3.org/1999/xlink">
    <!-- Generator: Sketch 39.1 (31720) - http://www.bohemiancoding.com/sketch -->
    <title>Shapevk</title>
    <desc>Created with Sketch.</desc>
    <defs></defs>
    <g id="Symbols" stroke="none" stroke-width="1" fill="none" fill-rule="evenodd">
        <g id="Footer/Tablet/Light-Copy" transform="translate(-32.000000, -34.000000)" fill="#5C80A4">
            <path d="M47.36,34 C38.8768,34 32,40.8768 32,49.36 C32,57.8432 38.8768,64.72 47.36,64.72 C55.8432,64.72 62.72,57.8432 62.72,49.36 C62.72,40.8768 55.8432,34 47.36,34 L47.36,34 Z M53.2672,51.328 C53.2672,51.328 54.6272,52.672 54.96,53.2928 C54.9696,53.3056 54.976,53.3184 54.976,53.3248 C55.1136,53.5536 55.1456,53.7312 55.0784,53.864 C54.9664,54.0848 54.5824,54.1936 54.4512,54.2032 L52.0512,54.2032 C51.8848,54.2032 51.536,54.16 51.1136,53.8672 C50.7888,53.6432 50.4688,53.2688 50.1568,52.9072 C49.6928,52.3632 49.288,51.8992 48.8816,51.8992 C48.8336,51.8992 48.7792,51.9056 48.7312,51.9216 C48.424,52.0224 48.0304,52.4608 48.0304,53.6288 C48.0304,53.9936 47.7424,54.2048 47.5392,54.2048 L46.4416,54.2048 C46.0672,54.2048 44.1168,54.072 42.3888,52.2496 C40.2768,50.0176 38.3728,45.5408 38.3568,45.4976 C38.2352,45.2096 38.4848,45.0544 38.7536,45.0544 L41.1776,45.0544 C41.5008,45.0544 41.6064,45.2512 41.68,45.4256 C41.7664,45.6288 42.0832,46.4368 42.6032,47.3456 C43.4464,48.8272 43.9632,49.4288 44.3792,49.4288 C44.456,49.4288 44.528,49.408 44.6,49.3712 C45.1408,49.0704 45.04,47.1424 45.016,46.7424 C45.016,46.6672 45.016,45.8784 44.7376,45.5024 C44.5392,45.2304 44.2016,45.1248 43.9968,45.0864 C44.0496,45.0064 44.168,44.888 44.3168,44.8144 C44.6848,44.6304 45.3568,44.6032 46.0192,44.6032 L46.3872,44.6032 C47.1072,44.6128 47.2928,44.6592 47.5552,44.7248 C48.0832,44.8528 48.0928,45.192 48.0464,46.3568 C48.0304,46.6896 48.0176,47.064 48.0176,47.5056 C48.0176,47.6016 48.0112,47.704 48.0112,47.8128 C47.9952,48.4048 47.976,49.08 48.3952,49.3568 C48.4496,49.3888 48.512,49.4096 48.5776,49.4096 C48.7216,49.4096 49.1616,49.4096 50.3488,47.3728 C50.8688,46.4736 51.272,45.4128 51.3008,45.3344 C51.3248,45.2928 51.3968,45.1648 51.4768,45.1152 C51.544,45.0768 51.632,45.0672 51.6768,45.0672 L54.5248,45.0672 C54.8368,45.0672 55.0496,45.1152 55.0896,45.2352 C55.16,45.4272 55.0768,46.008 53.7776,47.7696 C53.5568,48.0608 53.3616,48.3136 53.1952,48.5376 C52.016,50.0816 52.016,50.16 53.2688,51.3328 L53.2672,51.328 Z" id="Shape"></path>
        </g>
    </g>
</svg>