<?xml version="1.0" encoding="utf-8"?>
<!-- Generator: Adobe Illustrator 19.0.0, SVG Export Plug-In . SVG Version: 6.00 Build 0)  -->
<svg version="1.1" id="Слой_1" xmlns="http://www.w3.org/2000/svg" xmlns:xlink="http://www.w3.org/1999/xlink" x="0px" y="0px"
	 viewBox="0 0 881 404" style="enable-background:new 0 0 881 404;" xml:space="preserve">
<style type="text/css">
	.st0{fill:none;}
	.st1{fill:#81807E;}
	.st2{font-family:'ArialMT';}
	.st3{font-size:25px;}
	.st4{fill:#5AC645;}
	.st5{font-size:231px;}
	.st6{fill:#E6E6E6;}
	.st7{fill:#CDCACB;}
	.st8{fill:#9B9898;}
	.st9{fill:#6F6866;}
	.st10{fill:#5D5550;}
	.st11{font-size:152px;}
</style>
<g>
	<g id="Слой_1_1_">
		<g id="XMLID_2_">
			<rect id="XMLID_20_" x="539.2" y="272.7" class="st0" width="221.1" height="24.8"/>
			<text id="XMLID_21_" transform="matrix(1 0 0 1 539.2269 290.4825)" class="st1 st2 st3">mobile development</text>
			<rect id="XMLID_22_" x="282.2" y="234.2" class="st0" width="161.6" height="171.8"/>
			<text id="XMLID_23_" transform="matrix(1 0 0 1 282.2372 399.5576)" class="st4 st2 st5">S</text>
			<g id="XMLID_13_">
				<g id="XMLID_12_">
					<polyline id="XMLID_5_" class="st6" points="291.1,109.8 397.9,109.8 397.9,3.1 					"/>
					<g id="XMLID_11_">
						<path id="XMLID_7_" class="st7" d="M160,128h238L120,406l-48.9-48.9c0,0-6.4-1.5-14.7-4.3c-4.4-1.5-9.3-3.3-14.1-5.6
							c-4.8-2.2-9.6-5.3-13.6-8.4c-4.2-3.2-7.7-6.4-9.7-8.6c-2.7-2.9-5.8-7.8-8.7-13.6c-1.9-3.8-3.6-7.9-5-12.1
							c-2.9-8.5-3.5-16.9-3.5-16.9L160,128z"/>
						<polygon id="XMLID_9_" class="st8" points="15,274.1 15,296 1.7,287.6 						"/>
						<path id="XMLID_16_" class="st9" d="M163.3,194.7c-19.2,0-34.8,14.7-34.8,32.9s15.6,32.9,34.8,32.9s34.8-14.7,34.8-32.9
							S182.5,194.7,163.3,194.7z M173.8,225.7c-7.7,0-14-6-14-13.3s6.3-13.3,14-13.3s14,6,14,13.3S181.5,225.7,173.8,225.7z"/>
					</g>
				</g>
				<polyline id="XMLID_17_" class="st6" points="881,329.3 881,404 808,404 				"/>
			</g>
			<rect id="XMLID_18_" x="535.6" y="258.5" class="st0" width="228.7" height="38.5"/>
			<rect id="XMLID_24_" x="439.5" y="290" class="st0" width="354" height="115.3"/>
			<text id="XMLID_25_" transform="matrix(1 0 0 1 439.5112 398.7967)" class="st10 st2 st11">huan</text>
		</g>
	</g>
	<g id="Слой_2">
	</g>
</g>
</svg>
